<svg width="615" height="379" viewBox="0 0 615 379" fill="none" xmlns="http://www.w3.org/2000/svg">
<g clip-path="url(#clip0_1_191)" filter="url(#filter0_b_1_191)">
<g filter="url(#filter1_b_1_191)">
<path d="M520.616 280.036L526.057 238.031C546.161 229.278 568.06 225.652 589.854 227.467C557.744 249.761 557.387 298.175 534.198 329.921C526.891 339.766 517.5 347.812 506.722 353.462C495.944 359.112 484.055 362.222 471.935 362.56L445.512 375.975C443.736 356.14 446.207 336.15 452.754 317.38C459.301 298.611 469.769 281.509 483.437 267.253C491.182 259.333 499.877 252.437 509.316 246.727C513.949 263.382 520.616 280.036 520.616 280.036Z" fill="#F2F2F2"/>
</g>
<g filter="url(#filter2_b_1_191)">
<path d="M462.34 24.5173C463.743 21.2179 465.873 18.2908 468.565 15.9621C471.256 13.6334 474.438 11.9653 477.863 11.0866C485.47 9.07335 496.607 12.1402 502.325 16.5435C512.784 24.5982 515.337 52.2689 508.151 61.0131C506.721 60.9547 501.789 60.9114 500.343 60.8695L498.296 55.5992V60.8176C487.005 60.548 475.249 60.7168 463.487 60.8914C462.433 54.7003 459.922 30.4726 462.34 24.5173Z" fill="#2F2E41"/>
</g>
<g filter="url(#filter3_b_1_191)">
<path d="M464.257 358.181L453.959 358.18L449.059 317.756L464.259 317.757L464.257 358.181Z" fill="#9E616A"/>
</g>
<g filter="url(#filter4_b_1_191)">
<path d="M554.414 351.664L544.447 354.307L529.686 316.448L544.395 312.547L554.414 351.664Z" fill="#9E616A"/>
</g>
<g filter="url(#filter5_b_1_191)">
<path d="M478.065 54.3393C487.074 54.3393 494.377 46.9077 494.377 37.7402C494.377 28.5727 487.074 21.1411 478.065 21.1411C469.056 21.1411 461.753 28.5727 461.753 37.7402C461.753 46.9077 469.056 54.3393 478.065 54.3393Z" fill="#9E616A"/>
</g>
<g filter="url(#filter6_b_1_191)">
<path d="M466.857 16.1252C469.991 14.1808 473.581 13.129 477.251 13.0798C480.922 13.0305 484.538 13.9856 487.721 15.8453C490.905 17.7049 493.539 20.4008 495.348 23.6509C497.157 26.9011 498.075 30.5862 498.006 34.3209C489.114 36.6335 479.639 37.6008 469.598 34.8779L467.302 29.1613L465.949 34.8821C462.877 37.0811 459.912 37.0771 457.054 34.8702C456.933 31.146 457.775 27.4547 459.495 24.1652C461.215 20.8757 463.753 18.1034 466.857 16.1252Z" fill="#2F2E41"/>
</g>
<g filter="url(#filter7_b_1_191)">
<path d="M468.864 378.081H461.556L460.252 371.059L456.911 378.081H437.528C436.599 378.081 435.694 377.778 434.946 377.218C434.198 376.658 433.645 375.869 433.368 374.966C433.092 374.064 433.106 373.095 433.409 372.201C433.712 371.307 434.288 370.535 435.052 369.998L450.531 359.12V352.022L466.811 353.011L468.864 378.081Z" fill="#2F2E41"/>
</g>
<g filter="url(#filter8_b_1_191)">
<path d="M564.707 369.498L557.636 371.374L554.633 364.915L553.141 372.566L534.385 377.541C533.486 377.78 532.535 377.72 531.672 377.369C530.809 377.019 530.079 376.398 529.587 375.595C529.096 374.793 528.87 373.852 528.941 372.909C529.013 371.966 529.379 371.072 529.986 370.356L542.267 355.856L540.508 348.988L556.507 345.766L564.707 369.498Z" fill="#2F2E41"/>
</g>
<g filter="url(#filter9_b_1_191)">
<path d="M553.15 326.242C546.847 302.398 539.838 279.08 522.961 263.103L518.315 193.721C524.849 181.373 507.884 148.781 507.884 148.781L501.957 140.001L460.877 147.255V147.255C451.263 173.94 446.576 180.519 447.128 230.626C447.679 280.733 449.022 332.778 449.022 332.778H448.427C447.441 332.778 446.496 333.177 445.799 333.887C445.101 334.596 444.71 335.558 444.71 336.562C444.71 337.565 445.101 338.527 445.799 339.237C446.496 339.946 447.441 340.345 448.427 340.345H467.016C468.002 340.345 468.947 339.946 469.645 339.237C470.342 338.527 470.733 337.565 470.733 336.562C470.733 335.558 470.342 334.596 469.645 333.887C468.947 333.177 468.002 332.778 467.016 332.778H466.537C477.447 301.569 479.396 253.568 479.881 202.823L495.397 266.953L532.893 325.999C531.937 326.075 531.046 326.525 530.409 327.255C529.772 327.985 529.437 328.938 529.476 329.913C529.514 330.888 529.923 331.811 530.615 332.486C531.308 333.162 532.231 333.538 533.19 333.535H551.779C552.643 333.536 553.481 333.23 554.148 332.67C554.814 332.109 555.268 331.33 555.43 330.466C555.593 329.602 555.454 328.707 555.038 327.936C554.621 327.165 553.954 326.566 553.15 326.242Z" fill="#2F2E41"/>
</g>
<g filter="url(#filter10_b_1_191)">
<path d="M512.134 155.249H512.134C511.979 154.631 511.637 154.08 511.155 153.673C510.674 153.265 510.078 153.024 509.453 152.983C504.395 147.758 500.605 101.391 504.584 98.1868L504.578 98.1294L503.392 72.3604C503.349 71.4246 502.969 70.5376 502.324 69.869C501.679 69.2004 500.815 68.797 499.896 68.7359L493.635 68.3195C493.549 68.3165 493.468 68.2797 493.408 68.2169C493.348 68.154 493.315 68.07 493.315 67.9825C493.315 67.2789 493.178 66.5822 492.914 65.9321C492.649 65.2821 492.261 64.6914 491.773 64.1939C491.284 63.6963 490.703 63.3017 490.064 63.0324C489.426 62.7631 488.741 62.6245 488.049 62.6245H469.512C468.312 62.625 467.152 63.0714 466.252 63.88C465.352 64.6885 464.773 65.8036 464.623 67.0159C464.615 67.0993 464.576 67.1766 464.514 67.2321C464.452 67.2877 464.372 67.3175 464.29 67.3156L464.288 67.3155C462.181 67.2714 460.129 67.9971 458.504 69.3609C456.878 70.7247 455.787 72.6364 455.428 74.7489C452.894 89.7536 454.091 121.068 456.602 140.001C457.476 146.591 450.803 159.244 450.472 164.759C450.44 165.292 450.51 165.826 450.681 166.331C450.851 166.836 451.118 167.302 451.465 167.702C450.726 167.919 450.099 168.419 449.715 169.098C449.331 169.776 449.221 170.58 449.409 171.339H449.409C449.601 172.118 450.09 172.786 450.767 173.198C451.445 173.609 452.255 173.73 453.02 173.534L509.977 158.923C510.742 158.727 511.399 158.23 511.803 157.54C512.208 156.851 512.327 156.027 512.134 155.249Z" fill="#E6E6E6"/>
</g>
<g filter="url(#filter11_b_1_191)">
<path d="M389.623 91.693C390.612 91.3002 391.672 91.1327 392.731 91.2023C393.79 91.2718 394.821 91.5768 395.751 92.0956C396.682 92.6145 397.489 93.3346 398.116 94.2053C398.743 95.076 399.175 96.0761 399.382 97.1351L456.616 109.661L447.767 119.903L393.177 105.989C391.406 106.224 389.611 105.789 388.134 104.768C386.656 103.747 385.598 102.209 385.16 100.447C384.722 98.6849 384.935 96.8205 385.757 95.207C386.58 93.5936 387.955 92.3433 389.623 91.693V91.693Z" fill="#9E616A"/>
</g>
<g filter="url(#filter12_b_1_191)">
<path d="M464.959 123.784C456.122 128.491 402.743 110.077 400.411 109.269L399.818 109.063L410.795 98.7947L453.028 105.088L454.308 79.9245C454.453 77.1478 455.437 74.4846 457.127 72.2995C458.817 70.1144 461.129 68.5143 463.747 67.7185C466.066 67.0168 468.53 66.9755 470.87 67.5992C473.21 68.2229 475.337 69.4877 477.02 71.2559C478.703 73.0242 479.877 75.2282 480.415 77.6283C480.953 80.0283 480.834 82.5325 480.07 84.8684L469.62 116.845C468.815 119.3 467.439 121.52 465.61 123.318C465.416 123.504 465.197 123.661 464.959 123.784Z" fill="#E6E6E6"/>
</g>
<g filter="url(#filter13_b_1_191)">
<path d="M416.154 377.581H85.7759L85.694 377.317L85.6121 377.052C84.5321 373.557 83.5444 370.014 82.6553 366.449C81.7663 362.883 80.9759 359.295 80.2905 355.709C79.3589 350.839 78.6125 345.919 78.055 340.982C77.4975 336.046 77.129 331.093 76.9533 326.158C76.6481 317.411 78.0804 308.691 81.1645 300.521C84.2487 292.35 88.9212 284.897 94.9024 278.607C100.884 272.318 108.051 267.321 115.974 263.916C123.898 260.511 132.415 258.768 141.016 258.791H367.177C376.171 258.775 385.067 260.688 393.285 264.406C401.503 268.124 408.859 273.562 414.873 280.367C420.887 287.172 425.424 295.19 428.188 303.899C430.953 312.608 431.882 321.812 430.916 330.911V330.912C430.271 336.795 429.189 342.62 427.68 348.336C426.118 354.25 424.147 360.043 421.782 365.673C420.977 367.592 420.121 369.514 419.214 371.441C418.309 373.363 417.359 375.276 416.364 377.18L416.259 377.381L416.154 377.581Z" fill="#E6E6E6"/>
</g>
<g filter="url(#filter14_b_1_191)">
<path d="M369.608 282.625H132.421C127.195 282.625 122.183 280.512 118.488 276.752C114.793 272.992 112.717 267.892 112.717 262.574C112.717 257.256 114.793 252.156 118.488 248.396C122.183 244.636 127.195 242.524 132.421 242.524H369.608C374.834 242.524 379.846 244.636 383.541 248.396C387.236 252.156 389.312 257.256 389.312 262.574C389.312 267.892 387.236 272.992 383.541 276.752C379.846 280.512 374.834 282.625 369.608 282.625Z" fill="#FF8599"/>
</g>
<g filter="url(#filter15_b_1_191)">
<path d="M372.6 268.758H131.17L131.007 268.228C127.271 256.171 125.143 243.658 124.677 231.024C124.463 224.614 125.52 218.227 127.784 212.241C130.049 206.256 133.474 200.796 137.857 196.188C142.239 191.579 147.489 187.915 153.293 185.415C159.097 182.915 165.336 181.63 171.639 181.637H336.729C343.321 181.63 349.84 183.036 355.863 185.763C361.885 188.49 367.275 192.477 371.683 197.465C376.091 202.452 379.417 208.328 381.445 214.711C383.472 221.093 384.157 227.839 383.453 234.508C382.236 245.803 378.656 257.191 372.81 268.357L372.6 268.758Z" fill="#E6E6E6"/>
</g>
<g filter="url(#filter16_b_1_191)">
<path d="M339.867 206.962H165.136C159.91 206.962 154.899 204.85 151.204 201.089C147.508 197.329 145.433 192.229 145.433 186.911C145.433 181.594 147.508 176.494 151.204 172.734C154.899 168.973 159.91 166.861 165.136 166.861H339.867C345.093 166.861 350.104 168.973 353.8 172.734C357.495 176.494 359.571 181.594 359.571 186.911C359.571 192.229 357.495 197.329 353.8 201.089C350.104 204.85 345.093 206.962 339.867 206.962Z" fill="#FF8599"/>
</g>
<g filter="url(#filter17_b_1_191)">
<path d="M351.503 136.437C347.841 132.283 343.36 128.96 338.352 126.684C333.345 124.408 327.923 123.23 322.439 123.226H185.933C180.705 123.221 175.53 124.287 170.716 126.36C165.902 128.434 161.548 131.473 157.913 135.295C154.278 139.118 151.436 143.647 149.558 148.611C147.679 153.575 146.802 158.873 146.979 164.19C147.363 174.649 149.123 185.009 152.214 194.992L152.377 195.522H352.172L352.381 195.121C357.048 186.431 360.038 176.913 361.192 167.08C361.781 161.567 361.223 155.988 359.554 150.709C357.885 145.429 355.142 140.566 351.503 136.437Z" fill="#E6E6E6"/>
</g>
<g filter="url(#filter18_b_1_191)">
<path d="M319.948 123.226H191.004C190.046 126.235 189.801 129.432 190.289 132.555C190.777 135.679 191.985 138.641 193.813 141.199C195.641 143.757 198.037 145.839 200.807 147.274C203.576 148.71 206.64 149.458 209.748 149.458H301.203C304.311 149.458 307.375 148.71 310.145 147.274C312.914 145.839 315.311 143.757 317.139 141.199C318.967 138.641 320.174 135.679 320.662 132.555C321.15 129.432 320.906 126.235 319.948 123.226Z" fill="#FF8599"/>
</g>
<g filter="url(#filter19_b_1_191)">
<path d="M421.098 365.377C419.492 369.206 417.695 373.022 415.707 376.825H86.3215C84.1634 369.845 82.3934 362.746 81.0201 355.564C81.6342 355.078 82.3441 354.734 83.1013 354.553C83.8585 354.373 84.645 354.362 85.407 354.519C86.9766 355.025 88.3333 356.054 89.2585 357.44C92.0319 361.102 93.1918 365.74 94.2848 370.235C95.4522 367.586 96.6641 364.87 98.7014 362.827C99.5123 361.972 100.489 361.297 101.569 360.845C102.649 360.393 103.809 360.174 104.977 360.202C105.802 358.7 106.98 357.429 108.405 356.502C110.405 355.291 113.133 355.125 114.955 356.585C116.178 357.707 116.992 359.216 117.267 360.868C118.286 365.377 117.438 370.083 116.591 374.638C118.74 372.716 120.955 370.764 123.64 369.773C124.854 369.321 126.148 369.128 127.439 369.206C127.692 366.689 128.345 364.231 129.372 361.927C130.242 359.719 131.744 357.828 133.685 356.502C135.685 355.291 138.414 355.125 140.235 356.585C141.458 357.707 142.272 359.216 142.548 360.868C143.566 365.377 142.719 370.083 141.871 374.638C144.02 372.716 146.236 370.764 148.92 369.773C150.135 369.321 151.428 369.128 152.719 369.206C152.972 366.689 153.625 364.231 154.652 361.927C155.522 359.719 157.024 357.828 158.965 356.502C160.965 355.291 163.694 355.125 165.515 356.585C166.738 357.707 167.553 359.216 167.828 360.868C168.846 365.377 167.999 370.083 167.151 374.638C169.3 372.716 171.516 370.764 174.2 369.773C175.415 369.321 176.708 369.128 177.999 369.206C178.252 366.689 178.905 364.231 179.933 361.927C180.802 359.719 182.305 357.828 184.245 356.502C186.245 355.291 188.974 355.125 190.796 356.585C192.018 357.707 192.833 359.216 193.108 360.868C194.127 365.377 193.279 370.083 192.431 374.638C194.58 372.716 196.796 370.764 199.48 369.773C200.695 369.321 201.988 369.128 203.28 369.206C203.532 366.689 204.185 364.231 205.213 361.927C206.082 359.719 207.585 357.828 209.525 356.502C211.525 355.291 214.254 355.125 216.076 356.585C217.298 357.707 218.113 359.216 218.388 360.868C219.407 365.377 218.559 370.083 217.712 374.638C219.86 372.716 222.076 370.764 224.76 369.773C225.975 369.321 227.268 369.128 228.56 369.206C228.812 366.689 229.465 364.231 230.493 361.927C231.362 359.719 232.865 357.828 234.805 356.502C236.806 355.291 239.534 355.125 241.356 356.585C242.578 357.707 243.393 359.216 243.668 360.868C244.687 365.377 243.839 370.083 242.992 374.638C245.141 372.716 247.356 370.764 250.04 369.773C251.255 369.321 252.549 369.128 253.84 369.206C254.093 366.689 254.746 364.231 255.773 361.927C256.642 359.719 258.145 357.828 260.086 356.502C262.086 355.291 264.815 355.125 266.636 356.585C267.859 357.707 268.673 359.216 268.949 360.868C269.967 365.377 269.12 370.083 268.272 374.638C270.421 372.716 272.636 370.764 275.321 369.773C276.535 369.321 277.829 369.128 279.12 369.206C279.373 366.689 280.026 364.231 281.053 361.927C281.923 359.719 283.425 357.828 285.366 356.502C287.366 355.291 290.095 355.125 291.916 356.585C293.139 357.707 293.954 359.216 294.229 360.868C295.247 365.377 294.4 370.083 293.552 374.638C295.701 372.716 297.917 370.764 300.601 369.773C301.816 369.321 303.109 369.128 304.4 369.206C304.653 366.689 305.306 364.231 306.334 361.927C307.203 359.719 308.706 357.828 310.646 356.502C312.646 355.291 315.375 355.125 317.197 356.585C318.419 357.707 319.234 359.216 319.509 360.868C320.528 365.377 319.68 370.083 318.832 374.638C320.981 372.716 323.197 370.764 325.881 369.773C327.096 369.321 328.389 369.128 329.681 369.206C329.933 366.689 330.586 364.231 331.614 361.927C332.483 359.719 333.986 357.828 335.926 356.502C337.926 355.291 340.655 355.125 342.477 356.585C343.699 357.707 344.514 359.216 344.789 360.868C345.808 365.377 344.96 370.083 344.113 374.638C346.261 372.716 348.477 370.764 351.161 369.773C352.376 369.321 353.669 369.128 354.961 369.206C355.213 366.689 355.866 364.231 356.894 361.927C357.763 359.719 359.266 357.828 361.206 356.502C363.206 355.291 365.935 355.125 367.757 356.585C368.979 357.707 369.794 359.216 370.069 360.868C371.088 365.377 370.24 370.083 369.393 374.638C371.541 372.716 373.757 370.764 376.441 369.773C377.656 369.321 378.95 369.128 380.241 369.206C380.494 366.689 381.146 364.231 382.174 361.927C383.043 359.719 384.546 357.828 386.487 356.502C388.487 355.291 391.215 355.125 393.037 356.585C394.26 357.707 395.074 359.216 395.349 360.868C396.368 365.377 395.521 370.083 394.673 374.638C396.822 372.716 399.037 370.764 401.722 369.773C402.936 369.321 404.23 369.128 405.521 369.206C405.774 366.689 406.427 364.231 407.454 361.927C408.324 359.719 409.826 357.828 411.767 356.502C413.767 355.291 416.496 355.125 418.317 356.585C419.54 357.707 420.355 359.216 420.63 360.868C420.953 362.348 421.11 363.861 421.098 365.377Z" fill="#CCCCCC"/>
</g>
<g filter="url(#filter20_b_1_191)">
<path d="M152.023 147.837C157.24 145.495 163.532 146.382 168.189 149.616C173.093 153.02 175.376 159.015 174.78 164.931C174.449 168.325 173.097 171.533 170.909 174.116L171.697 173.784C169.269 173.754 167.939 170.862 168.308 168.678C168.808 165.72 172.127 164.19 174.765 163.968C178.356 163.666 181.809 165.25 185.047 166.617C188.522 168.096 192.082 169.361 195.707 170.404C203.08 172.498 210.68 173.651 218.333 173.837C222.105 173.929 225.88 173.779 229.633 173.387C233.064 173.028 236.58 172.585 239.798 171.256C243.051 169.913 245.86 167.705 247.25 164.348C247.934 162.861 248.212 161.214 248.052 159.58C247.892 157.947 247.302 156.387 246.343 155.067C246.204 154.928 246.032 154.829 245.844 154.778C245.656 154.727 245.459 154.727 245.271 154.778C245.083 154.828 244.911 154.928 244.772 155.066C244.633 155.205 244.532 155.378 244.479 155.568C243.964 158.158 243.985 160.829 244.542 163.41C245.098 165.992 246.177 168.426 247.709 170.56C249.338 172.836 251.45 174.709 253.888 176.04C256.326 177.37 259.027 178.125 261.791 178.247C268.102 178.593 274.274 176.105 279.754 173.156C285.482 170.075 290.706 166.129 296.53 163.218C302.146 160.411 308.617 158.343 314.866 160.027C319.847 161.37 325.112 165.797 323.468 171.616C322.834 173.864 321.062 175.756 318.656 175.749C316.614 175.743 314.258 174.429 314.011 172.182C313.716 169.489 316.251 167.374 318.506 166.58C321.736 165.442 325.34 166.294 328.644 166.58C334.069 167.074 339.483 165.516 343.85 162.204C348.062 159.085 351.131 154.624 352.57 149.529C352.909 148.231 353.129 146.904 353.228 145.565C353.342 144.109 351.111 144.117 350.997 145.565C350.722 148.296 349.917 150.945 348.63 153.358C347.342 155.771 345.597 157.9 343.495 159.622C341.404 161.398 338.99 162.739 336.39 163.567C333.565 164.388 330.605 164.61 327.692 164.218C324.341 163.871 320.739 163.248 317.504 164.544C315.025 165.537 312.632 167.507 311.953 170.241C310.631 175.559 316.612 179.413 321.197 177.529C326.341 175.415 327.134 168.353 324.395 164.028C321.102 158.83 314.53 156.808 308.726 157.195C294.935 158.115 284.928 169.361 272.483 174.043C266.611 176.253 259.828 177.106 254.214 173.686C251.94 172.247 250.038 170.275 248.666 167.936C247.294 165.596 246.493 162.956 246.329 160.237C246.253 158.874 246.354 157.507 246.63 156.171L244.766 156.672C246.155 158.502 246.097 160.999 245.357 163.083C244.456 165.415 242.732 167.322 240.523 168.428C238.094 169.637 235.479 170.413 232.792 170.723C229.814 171.163 226.815 171.432 223.808 171.531C211.706 171.982 199.64 169.941 188.332 165.531C183.237 163.539 177.838 160.466 172.227 162.16C167.999 163.437 164.756 167.553 166.524 172.101C166.848 173.05 167.401 173.902 168.133 174.577C168.865 175.251 169.751 175.728 170.712 175.962C171.22 176.118 171.765 176.095 172.26 175.899C172.713 175.539 173.097 175.097 173.391 174.595C174.141 173.594 174.781 172.513 175.3 171.371C177.275 167 177.64 162.051 176.33 157.428C173.223 146.695 160.79 141.436 150.897 145.877C149.587 146.466 150.72 148.422 152.023 147.837L152.023 147.837Z" fill="#3F3D56"/>
</g>
<g filter="url(#filter21_b_1_191)">
<path d="M127.628 215.458C130.821 223.286 135.683 230.294 141.863 235.975C148.043 241.657 155.387 245.871 163.362 248.312C166.08 249.152 168.867 249.741 171.688 250.071C174.376 250.366 177.325 250.193 179.55 248.458C182.754 245.96 182.685 238.817 177.61 238.869C175.102 238.895 173.002 241.234 172.69 243.663C172.326 246.498 174.058 249.147 176.134 250.86C180.688 254.619 186.935 255.083 192.486 253.906C198.862 252.555 204.449 248.888 210.039 245.674C216.441 241.994 224.048 238.298 231.577 240.269C237.287 241.765 242.494 247.864 240.632 254.091L242.27 253.412C239.792 252.269 239.189 249.108 240.162 246.69C241.381 243.663 244.943 242.532 247.898 242.534C251.793 242.537 255.392 244.377 258.851 245.999C262.033 247.523 265.339 248.763 268.732 249.705C282.114 253.245 296.287 251.965 308.848 246.084C311.931 244.664 314.866 242.931 317.607 240.912C319.776 239.284 322.281 236.436 320.533 233.578C320.211 233.021 319.76 232.553 319.219 232.216C318.678 231.878 318.064 231.681 317.43 231.642C315.904 231.634 315.234 232.713 314.758 234.03C313.816 236.832 313.806 239.872 314.728 242.681C316.665 248.906 321.826 253.203 327.946 254.771C334.715 256.506 342.004 255.323 348.549 253.18C361.062 249.041 371.842 240.735 379.149 229.6C380.062 228.201 380.906 226.759 381.694 225.283C382.38 224 380.455 222.853 379.768 224.138C373.766 235.273 364.296 244.062 352.848 249.122C342.342 253.765 324.949 257.184 318.079 244.855C316.656 242.424 316.054 239.586 316.366 236.774C316.49 235.884 316.771 233.309 318.054 234.149C319.507 235.101 318.717 236.783 317.793 237.788C315.71 240.054 312.561 241.644 309.876 243.053C306.999 244.559 303.996 245.804 300.904 246.772C288.375 250.75 274.882 250.216 262.695 245.26C256.228 242.565 248.847 237.782 241.836 241.736C240.565 242.419 239.495 243.432 238.734 244.672C237.973 245.912 237.547 247.335 237.501 248.796C237.424 251.477 238.666 254.229 241.144 255.372C241.293 255.456 241.458 255.505 241.627 255.515C241.796 255.526 241.966 255.497 242.123 255.432C242.28 255.367 242.421 255.267 242.535 255.139C242.65 255.012 242.734 254.859 242.783 254.694C244.178 250.027 242.247 245.144 238.862 241.891C234.88 238.065 229.459 236.969 224.144 237.716C212.072 239.411 203.319 249.486 191.502 251.797C186.404 252.795 180.115 252.235 176.447 248.043C174.809 246.17 173.884 242.378 176.947 241.274C179.195 240.465 179.898 243.177 179.396 244.846C177.848 250.001 169.293 247.562 165.743 246.628C160.86 245.334 156.185 243.334 151.86 240.691C141.963 234.716 134.221 225.657 129.779 214.854C129.243 213.52 127.085 214.104 127.628 215.458H127.628Z" fill="#CCCCCC"/>
</g>
<g filter="url(#filter22_b_1_191)">
<path d="M79.9262 311.73C97.0259 308.45 118.05 305.147 130.877 320.262C133.421 323.198 135.179 326.75 135.982 330.578C136.321 332.299 136.746 334.209 135.029 335.272C134.368 335.661 133.622 335.873 132.858 335.889C132.095 335.905 131.341 335.725 130.664 335.365C126.918 333.25 129.005 327.623 131.825 325.78C135.665 323.269 140.605 324.341 144.546 325.975C148.821 327.748 152.866 330.014 157.192 331.685C161.282 333.262 165.475 334.546 169.74 335.528C178.577 337.565 187.649 338.337 196.695 337.822C205.467 337.415 214.131 335.68 222.401 332.675C225.566 331.474 228.86 329.738 230.787 326.803C231.673 325.498 232.128 323.94 232.084 322.354C232.041 320.768 231.501 319.238 230.545 317.986C229.539 316.61 228.091 315.637 226.453 315.236C224.814 314.835 223.09 315.033 221.579 315.793C220.182 316.561 219.047 317.742 218.324 319.18C217.73 320.365 216.956 322.708 217.714 323.956C218.099 324.59 219.04 324.842 219.657 325.149C220.689 325.665 221.73 326.162 222.78 326.642C224.615 327.48 226.472 328.268 228.351 329.004C232.464 330.611 236.671 331.959 240.948 333.038C257.774 337.271 275.333 337.492 292.258 333.684C296.466 332.735 300.613 331.527 304.678 330.068C308.521 328.686 312.578 327.209 316.111 325.116C318.897 323.466 322.162 320.633 321.9 317.004C321.795 315.678 321.185 314.446 320.201 313.57C319.217 312.695 317.936 312.244 316.63 312.314C315.29 312.318 313.977 312.702 312.838 313.423C311.699 314.143 310.781 315.172 310.184 316.394C308.67 319.887 310.185 323.867 312.393 326.656C317.162 332.678 325.297 334.841 332.596 334.768C341.054 334.682 349.072 331.963 356.916 329.007C365.702 325.697 374.873 322.022 384.417 322.609C393.018 323.138 401.122 328.315 409.855 327.241C417.436 326.308 421.886 320.135 423.853 313.106C424.741 309.679 425.349 306.183 425.669 302.654C425.828 301.204 423.596 301.216 423.438 302.654C422.68 309.553 421.527 318.304 415.532 322.685C408.262 327.998 398.795 323.316 391.176 321.428C382.385 319.251 373.757 320.736 365.282 323.561C356.935 326.344 348.898 330.148 340.203 331.736C332.65 333.115 324.291 332.962 317.703 328.484C314.467 326.283 310.607 321.957 312.096 317.624C312.947 315.148 317.378 313.122 319.178 315.72C321.828 319.545 315.165 323.17 312.606 324.368C308.687 326.198 304.658 327.772 300.543 329.081C273.612 337.63 244.474 335.237 219.24 322.403L219.792 323.383C219.363 319.463 223.276 315.786 227.011 317.848C230.569 319.812 230.545 324.123 227.891 326.827C225.276 329.49 221.527 330.675 218.076 331.73C214.269 332.893 210.391 333.806 206.468 334.463C189.993 337.194 173.102 335.443 157.507 329.388C150.522 326.664 143.289 321.132 135.459 322.162C132.335 322.573 129.315 324.115 127.692 326.956C126.261 329.46 125.953 332.75 127.474 335.285C129.901 339.33 138.402 339.144 138.549 333.469C138.716 327.005 134.708 320.551 130.23 316.315C116.284 303.123 96.3867 306.27 79.3332 309.541C77.9242 309.811 78.5209 311.999 79.9261 311.73L79.9262 311.73Z" fill="#CCCCCC"/>
</g>
<g filter="url(#filter23_b_1_191)">
<path d="M296.167 91.3872C301.592 90.4452 303.917 83.7856 302.643 78.8818C301.814 75.6933 299.87 72.9569 297.709 70.5583C295.202 67.7751 292.421 65.2334 289.749 62.6165C286.483 59.4166 283.216 56.2167 279.949 53.0167C279.81 52.879 279.638 52.7802 279.451 52.73C279.263 52.6798 279.066 52.6799 278.878 52.7303C278.69 52.7808 278.519 52.8797 278.38 53.0177C278.241 53.1556 278.139 53.3278 278.085 53.5175C276.672 62.8855 278.888 72.4457 284.266 80.1836C285.64 82.1165 287.187 83.9156 288.888 85.5579C290.547 87.1809 292.326 88.7967 293.357 90.932L296.358 93.1705C296.258 92.5704 296.109 91.98 295.912 91.4054C295.998 91.4081 296.083 91.402 296.167 91.3872Z" fill="#FD6584"/>
</g>
<g filter="url(#filter24_b_1_191)">
<path d="M295.998 90.8198H293.768C294.939 93.2465 294.46 96.9389 294.298 99.5693C294.116 102.51 293.866 105.447 293.648 108.385C293.156 114.992 292.664 121.598 292.173 128.205C292.064 129.662 294.295 129.655 294.403 128.205L295.711 110.629C295.934 107.637 296.157 104.646 296.379 101.654C296.56 98.0382 296.432 94.4132 295.998 90.8198Z" fill="#3F3D56"/>
</g>
<g filter="url(#filter25_b_1_191)">
<path d="M296.156 91.0769C296.627 89.663 296.795 88.1631 296.649 86.6777C296.503 85.1923 296.047 83.7558 295.31 82.4646C295.156 82.2156 294.912 82.0374 294.631 81.9676C294.35 81.8978 294.053 81.9419 293.803 82.0905C293.554 82.2391 293.37 82.4806 293.292 82.7642C293.214 83.0477 293.247 83.3511 293.384 83.6103C293.974 84.6387 294.335 85.7861 294.443 86.9718C294.55 88.1576 294.401 89.3528 294.005 90.4735C293.927 90.7636 293.965 91.0735 294.111 91.335C294.257 91.5965 294.5 91.7883 294.785 91.8682C295.07 91.9482 295.374 91.9097 295.631 91.7614C295.888 91.613 296.077 91.3668 296.156 91.0769H296.156Z" fill="#3F3D56"/>
</g>
<g filter="url(#filter26_b_1_191)">
<path d="M209.174 89.1173C214.598 88.1753 216.924 81.5157 215.649 76.6119C214.82 73.4235 212.876 70.6871 210.715 68.2884C208.208 65.5052 205.427 62.9635 202.756 60.3466C199.489 57.1467 196.222 53.9468 192.956 50.7469C192.817 50.6091 192.645 50.5103 192.457 50.4601C192.269 50.4099 192.072 50.41 191.884 50.4604C191.697 50.5109 191.525 50.6099 191.386 50.7478C191.247 50.8858 191.146 51.058 191.092 51.2476C189.679 60.6156 191.895 70.1759 197.273 77.9138C198.647 79.8466 200.194 81.6457 201.894 83.288C203.554 84.911 205.333 86.5268 206.364 88.6621L209.364 90.9006C209.265 90.3005 209.116 89.7101 208.918 89.1355C209.004 89.1382 209.09 89.1321 209.174 89.1173Z" fill="#FD6584"/>
</g>
<g filter="url(#filter27_b_1_191)">
<path d="M209.005 88.5499H206.774C207.946 90.9766 207.467 94.669 207.304 97.2994C207.122 100.24 206.873 103.177 206.654 106.115C206.162 112.722 205.671 119.328 205.179 125.935C205.071 127.392 207.302 127.385 207.41 125.935L208.718 108.359C208.94 105.367 209.163 102.376 209.386 99.3841C209.566 95.7683 209.439 92.1434 209.005 88.5499Z" fill="#3F3D56"/>
</g>
<g filter="url(#filter28_b_1_191)">
<path d="M209.163 88.8071C209.633 87.3932 209.801 85.8932 209.655 84.4078C209.509 82.9224 209.053 81.4859 208.317 80.1948C208.162 79.9458 207.919 79.7675 207.638 79.6977C207.357 79.6279 207.06 79.672 206.81 79.8206C206.56 79.9692 206.377 80.2108 206.298 80.4943C206.22 80.7779 206.253 81.0812 206.391 81.3404C206.981 82.3688 207.342 83.5162 207.449 84.702C207.556 85.8877 207.407 87.0829 207.012 88.2036C206.933 88.4937 206.972 88.8036 207.118 89.0651C207.264 89.3266 207.506 89.5184 207.791 89.5983C208.076 89.6783 208.381 89.6399 208.638 89.4915C208.895 89.3431 209.084 89.097 209.163 88.8071H209.163Z" fill="#3F3D56"/>
</g>
<g filter="url(#filter29_b_1_191)">
<path d="M250.068 85.3342C255.493 84.3922 257.818 77.7326 256.543 72.8287C255.715 69.6403 253.771 66.9039 251.61 64.5052C249.103 61.7221 246.322 59.1804 243.65 56.5635C240.383 53.3636 237.117 50.1636 233.85 46.9637C233.711 46.8259 233.539 46.7272 233.351 46.677C233.164 46.6268 232.966 46.6269 232.779 46.6773C232.591 46.7277 232.419 46.8267 232.281 46.9647C232.142 47.1026 232.04 47.2748 231.986 47.4645C230.573 56.8325 232.789 66.3927 238.167 74.1306C239.541 76.0635 241.088 77.8626 242.789 79.5048C244.448 81.1279 246.227 82.7436 247.258 84.8789L250.258 87.1175C250.159 86.5174 250.01 85.9269 249.813 85.3523C249.898 85.3551 249.984 85.349 250.068 85.3342Z" fill="#FD6584"/>
</g>
<g filter="url(#filter30_b_1_191)">
<path d="M249.899 84.7668H247.669C248.84 87.1935 248.361 90.8859 248.199 93.5163C248.017 96.4568 247.767 99.3943 247.548 102.332C247.057 108.939 246.565 115.545 246.073 122.152C245.965 123.609 248.196 123.602 248.304 122.152L249.612 104.576C249.835 101.584 250.057 98.5926 250.28 95.601C250.46 91.9852 250.333 88.3602 249.899 84.7668Z" fill="#3F3D56"/>
</g>
<g filter="url(#filter31_b_1_191)">
<path d="M250.057 85.0239C250.528 83.61 250.696 82.1101 250.55 80.6247C250.404 79.1393 249.947 77.7028 249.211 76.4116C249.057 76.1626 248.813 75.9844 248.532 75.9146C248.251 75.8448 247.954 75.8889 247.704 76.0375C247.454 76.1861 247.271 76.4276 247.193 76.7112C247.115 76.9947 247.148 77.2981 247.285 77.5573C247.875 78.5857 248.236 79.7331 248.344 80.9188C248.451 82.1046 248.301 83.2998 247.906 84.4205C247.828 84.7106 247.866 85.0204 248.012 85.2819C248.158 85.5435 248.4 85.7352 248.685 85.8152C248.97 85.8951 249.275 85.8567 249.532 85.7084C249.789 85.56 249.978 85.3138 250.057 85.0239H250.057Z" fill="#3F3D56"/>
</g>
<g filter="url(#filter32_b_1_191)">
<path d="M281.442 220.381C280.891 218.244 278.79 216.439 276.654 216.834C274.937 217.151 273.672 218.752 273.198 220.461C272.829 222.201 272.781 223.995 273.056 225.753C271.14 223.702 269.147 221.597 266.583 220.503C265.681 220.052 264.656 219.924 263.673 220.14C263.005 220.388 262.423 220.831 262 221.414C261.577 221.997 261.332 222.693 261.296 223.416C261.25 224.869 261.635 226.303 262.401 227.53C263.471 229.41 264.939 231.022 266.699 232.251C268.46 233.48 270.467 234.294 272.575 234.633L271.884 233.716C275.394 232.47 278.351 229.989 280.22 226.719C281.305 224.806 281.992 222.518 281.442 220.381Z" fill="#FF8599"/>
</g>
<g filter="url(#filter33_b_1_191)">
<path d="M180.321 309.663C179.77 307.526 177.669 305.721 175.533 306.116C173.817 306.433 172.551 308.034 172.077 309.743C171.708 311.483 171.66 313.277 171.935 315.035C170.019 312.984 168.026 310.879 165.463 309.785C164.56 309.334 163.535 309.206 162.552 309.422C161.884 309.67 161.302 310.113 160.879 310.696C160.456 311.279 160.211 311.975 160.175 312.698C160.129 314.151 160.515 315.585 161.28 316.812C162.35 318.691 163.819 320.304 165.579 321.533C167.339 322.762 169.346 323.576 171.454 323.915L170.764 322.997C174.273 321.752 177.23 319.271 179.099 316.001C180.184 314.088 180.871 311.8 180.321 309.663Z" fill="#FF8599"/>
</g>
<g filter="url(#filter34_b_1_191)">
<path d="M198.166 176.497C197.615 174.359 195.514 172.555 193.378 172.949C191.661 173.266 190.396 174.868 189.922 176.576C189.553 178.316 189.505 180.11 189.78 181.868C187.864 179.818 185.871 177.712 183.307 176.619C182.405 176.167 181.38 176.039 180.397 176.256C179.729 176.504 179.147 176.947 178.724 177.53C178.301 178.112 178.056 178.809 178.02 179.532C177.974 180.985 178.359 182.418 179.125 183.646C180.195 185.525 181.663 187.138 183.424 188.367C185.184 189.596 187.191 190.409 189.299 190.749L188.608 189.831C192.118 188.586 195.075 186.104 196.944 182.835C198.029 180.921 198.716 178.634 198.166 176.497Z" fill="#FF8599"/>
</g>
<g filter="url(#filter35_b_1_191)">
<path d="M355.322 51.4915C353.482 59.7158 352.608 69.0398 357.515 76.3996C359.6 79.557 362.661 81.9165 366.213 83.1047C369.807 84.1893 373.598 84.4262 377.296 83.7974C385.665 82.6176 393.103 78.1817 401.333 76.4594C404.965 75.6994 408.82 75.4482 412.316 76.9109C414.936 78.0069 417.696 80.2103 417.708 83.3534C417.721 86.581 414.966 88.7232 412.227 89.7156C408.571 91.0397 404.772 90.5272 400.98 90.3603C396.896 90.1806 392.732 90.5564 389.339 93.1014C386.421 95.419 384.184 98.5063 382.869 102.028C381.164 106.239 380.472 110.767 379.382 115.161C378.407 119.111 377.028 122.947 375.268 126.605C371.815 133.775 366.973 140.162 361.034 145.381C358.105 147.946 354.546 150.559 350.546 150.794C347.461 150.976 343.71 149.656 342.521 146.476C342.079 145.103 342.123 143.616 342.643 142.272C343.164 140.928 344.13 139.811 345.374 139.115C348.018 137.757 350.897 139.694 351.751 142.352C351.975 142.965 352.054 143.623 351.98 144.273C351.906 144.922 351.682 145.545 351.327 146.089C350.525 147.306 352.457 148.443 353.253 147.235C355.102 144.429 354.136 140.656 351.871 138.408C350.766 137.262 349.29 136.564 347.716 136.445C346.143 136.326 344.581 136.793 343.321 137.76C342.013 138.774 341.023 140.154 340.475 141.732C339.926 143.31 339.842 145.017 340.233 146.642C341.184 150.135 344.557 152.357 347.926 152.908C352.085 153.587 356.088 151.924 359.446 149.521C362.814 147.046 365.877 144.167 368.568 140.946C374.039 134.544 378.151 127.061 380.648 118.967C383.103 110.961 383.282 100.384 390.577 94.9774C394.331 92.1952 398.931 92.5038 403.332 92.7592C407.218 92.9846 411.008 92.9437 414.572 91.1537C417.515 89.6758 419.89 86.9477 419.939 83.4721C419.989 79.9635 417.541 77.1422 414.656 75.5437C407.037 71.3208 397.887 74.7266 390.401 77.5478C382.873 80.385 374.278 83.7149 366.278 80.7293C362.586 79.2692 359.613 76.3788 358.012 72.6918C356.074 68.5112 355.799 63.7676 356.246 59.2306C356.51 56.8286 356.92 54.4455 357.473 52.0949C357.791 50.6727 355.641 50.0655 355.322 51.4915V51.4915Z" fill="#3F3D56"/>
</g>
<g filter="url(#filter36_b_1_191)">
<path d="M368.994 28.4203C366.789 35.9146 363.463 43.0192 359.135 49.4848C358.064 51.0737 356.939 52.6223 355.76 54.1305C354.843 52.4347 353.732 50.855 352.451 49.4243C347.952 44.3927 341.922 41.1014 336.071 37.8025C330.219 34.5036 324.278 30.9626 320.144 25.6132C318.289 23.2052 316.961 20.4218 316.248 17.4492C315.311 13.4164 315.668 9.20952 317.981 5.84253C321.341 0.947157 328.041 -0.777945 333.736 0.636947C339.439 2.05184 344.212 6.08466 347.915 10.7152C346.703 5.02538 352.599 -0.467731 358.302 0.0316433C364.005 0.538583 368.578 5.60798 370.095 11.2222C371.619 16.8288 370.63 22.8364 368.994 28.4203Z" fill="#FF8599"/>
</g>
<g opacity="0.2" filter="url(#filter37_b_1_191)">
<path opacity="0.2" d="M359.135 49.4848C358.064 51.0737 356.939 52.6223 355.759 54.1305C354.842 52.4347 353.732 50.855 352.451 49.4242C347.952 44.3927 341.922 41.1013 336.071 37.8025C330.219 34.5036 324.278 30.9625 320.144 25.6132C318.289 23.2052 316.961 20.4218 316.248 17.4492C329.403 19.305 341.49 25.8302 350.376 35.8731C353.934 39.9502 356.885 44.5362 359.135 49.4848Z" fill="black"/>
</g>
<g filter="url(#filter38_b_1_191)">
<path d="M495.546 156.804C496.606 156.775 497.647 156.51 498.596 156.027C499.545 155.544 500.378 154.855 501.037 154.009C501.696 153.162 502.165 152.18 502.41 151.129C502.655 150.079 502.671 148.986 502.457 147.929L523.859 134.041L511.793 128.107L493.357 142.227C491.635 142.712 490.148 143.822 489.177 145.348C488.206 146.873 487.819 148.708 488.089 150.505C488.358 152.302 489.267 153.936 490.641 155.097C492.015 156.258 493.76 156.865 495.546 156.804L495.546 156.804Z" fill="#9E616A"/>
</g>
<g filter="url(#filter39_b_1_191)">
<path d="M499.908 89.2233C499.908 89.2233 487.346 78.8856 492.331 71.551C497.316 64.2164 510.047 72.2031 510.047 72.2031L547.104 115.068C547.104 115.068 507.74 151.426 508.961 146.026C510.182 140.627 501.051 136.406 501.051 136.406L518.617 116.301L514.764 114.401L516.336 113.48L514.683 109.539L499.908 89.2233Z" fill="#E6E6E6"/>
</g>
<g filter="url(#filter40_b_1_191)">
<path d="M615 377.865C615 377.983 614.978 378.101 614.933 378.21C614.889 378.319 614.824 378.419 614.742 378.503C614.659 378.586 614.562 378.653 614.454 378.698C614.347 378.743 614.231 378.766 614.115 378.765L446.797 378.788L435.109 378.796L427.399 378.803H418.87L414.216 378.811L401.293 378.818L197.966 378.924L196.42 378.932L105.47 378.962H103.969L26.5517 378.992H25.0497L0.884839 379C0.650174 379 0.425128 378.905 0.259194 378.736C0.093261 378.567 3.05176e-05 378.338 3.05176e-05 378.1C3.05176e-05 377.861 0.093261 377.632 0.259194 377.463C0.425128 377.294 0.650174 377.199 0.884839 377.199L25.3025 377.192H26.8045L104.199 377.161H105.701L195.944 377.131H197.483L274.379 377.101H275.39L399.881 377.025L412.781 377.018L418.684 377.01L428.016 377.003H435.987L448.545 376.995L614.115 376.965C614.231 376.964 614.347 376.987 614.454 377.033C614.562 377.078 614.659 377.144 614.742 377.228C614.824 377.311 614.889 377.411 614.933 377.52C614.978 377.629 615 377.747 615 377.865Z" fill="#CACACA"/>
</g>
<g filter="url(#filter41_b_1_191)">
<path d="M511.388 17.7728C509.776 15.2574 507.999 12.5993 505.262 11.4754C502.526 10.3514 498.645 11.6954 498.273 14.6743C497.995 16.9011 499.665 18.8138 500.922 20.6584C502.179 22.5029 502.996 25.2871 501.354 26.7862L500.43 27.2709C501.313 28.4316 502.451 29.3655 503.753 29.9976C505.055 30.6298 506.484 30.9425 507.926 30.9108C510.797 30.726 513.563 28.558 514.047 25.673C514.519 22.8599 512.92 20.1633 511.388 17.7728Z" fill="#2F2E41"/>
</g>
</g>
<defs>
<filter id="filter0_b_1_191" x="-15" y="-15" width="645" height="409" filterUnits="userSpaceOnUse" color-interpolation-filters="sRGB">
<feFlood flood-opacity="0" result="BackgroundImageFix"/>
<feGaussianBlur in="BackgroundImageFix" stdDeviation="7.5"/>
<feComposite in2="SourceAlpha" operator="in" result="effect1_backgroundBlur_1_191"/>
<feBlend mode="normal" in="SourceGraphic" in2="effect1_backgroundBlur_1_191" result="shape"/>
</filter>
<filter id="filter1_b_1_191" x="436.953" y="219.012" width="160.9" height="164.963" filterUnits="userSpaceOnUse" color-interpolation-filters="sRGB">
<feFlood flood-opacity="0" result="BackgroundImageFix"/>
<feGaussianBlur in="BackgroundImageFix" stdDeviation="4"/>
<feComposite in2="SourceAlpha" operator="in" result="effect1_backgroundBlur_1_191"/>
<feBlend mode="normal" in="SourceGraphic" in2="effect1_backgroundBlur_1_191" result="shape"/>
</filter>
<filter id="filter2_b_1_191" x="453.322" y="2.45532" width="66.903" height="66.5578" filterUnits="userSpaceOnUse" color-interpolation-filters="sRGB">
<feFlood flood-opacity="0" result="BackgroundImageFix"/>
<feGaussianBlur in="BackgroundImageFix" stdDeviation="4"/>
<feComposite in2="SourceAlpha" operator="in" result="effect1_backgroundBlur_1_191"/>
<feBlend mode="normal" in="SourceGraphic" in2="effect1_backgroundBlur_1_191" result="shape"/>
</filter>
<filter id="filter3_b_1_191" x="441.059" y="309.756" width="31.2001" height="56.425" filterUnits="userSpaceOnUse" color-interpolation-filters="sRGB">
<feFlood flood-opacity="0" result="BackgroundImageFix"/>
<feGaussianBlur in="BackgroundImageFix" stdDeviation="4"/>
<feComposite in2="SourceAlpha" operator="in" result="effect1_backgroundBlur_1_191"/>
<feBlend mode="normal" in="SourceGraphic" in2="effect1_backgroundBlur_1_191" result="shape"/>
</filter>
<filter id="filter4_b_1_191" x="521.686" y="304.547" width="40.7278" height="57.7605" filterUnits="userSpaceOnUse" color-interpolation-filters="sRGB">
<feFlood flood-opacity="0" result="BackgroundImageFix"/>
<feGaussianBlur in="BackgroundImageFix" stdDeviation="4"/>
<feComposite in2="SourceAlpha" operator="in" result="effect1_backgroundBlur_1_191"/>
<feBlend mode="normal" in="SourceGraphic" in2="effect1_backgroundBlur_1_191" result="shape"/>
</filter>
<filter id="filter5_b_1_191" x="453.753" y="13.1411" width="48.6239" height="49.1983" filterUnits="userSpaceOnUse" color-interpolation-filters="sRGB">
<feFlood flood-opacity="0" result="BackgroundImageFix"/>
<feGaussianBlur in="BackgroundImageFix" stdDeviation="4"/>
<feComposite in2="SourceAlpha" operator="in" result="effect1_backgroundBlur_1_191"/>
<feBlend mode="normal" in="SourceGraphic" in2="effect1_backgroundBlur_1_191" result="shape"/>
</filter>
<filter id="filter6_b_1_191" x="449.043" y="5.07794" width="56.967" height="39.4521" filterUnits="userSpaceOnUse" color-interpolation-filters="sRGB">
<feFlood flood-opacity="0" result="BackgroundImageFix"/>
<feGaussianBlur in="BackgroundImageFix" stdDeviation="4"/>
<feComposite in2="SourceAlpha" operator="in" result="effect1_backgroundBlur_1_191"/>
<feBlend mode="normal" in="SourceGraphic" in2="effect1_backgroundBlur_1_191" result="shape"/>
</filter>
<filter id="filter7_b_1_191" x="425.171" y="344.022" width="51.6932" height="42.0585" filterUnits="userSpaceOnUse" color-interpolation-filters="sRGB">
<feFlood flood-opacity="0" result="BackgroundImageFix"/>
<feGaussianBlur in="BackgroundImageFix" stdDeviation="4"/>
<feComposite in2="SourceAlpha" operator="in" result="effect1_backgroundBlur_1_191"/>
<feBlend mode="normal" in="SourceGraphic" in2="effect1_backgroundBlur_1_191" result="shape"/>
</filter>
<filter id="filter8_b_1_191" x="520.928" y="337.766" width="51.7789" height="47.9187" filterUnits="userSpaceOnUse" color-interpolation-filters="sRGB">
<feFlood flood-opacity="0" result="BackgroundImageFix"/>
<feGaussianBlur in="BackgroundImageFix" stdDeviation="4"/>
<feComposite in2="SourceAlpha" operator="in" result="effect1_backgroundBlur_1_191"/>
<feBlend mode="normal" in="SourceGraphic" in2="effect1_backgroundBlur_1_191" result="shape"/>
</filter>
<filter id="filter9_b_1_191" x="436.71" y="132.001" width="126.787" height="216.344" filterUnits="userSpaceOnUse" color-interpolation-filters="sRGB">
<feFlood flood-opacity="0" result="BackgroundImageFix"/>
<feGaussianBlur in="BackgroundImageFix" stdDeviation="4"/>
<feComposite in2="SourceAlpha" operator="in" result="effect1_backgroundBlur_1_191"/>
<feBlend mode="normal" in="SourceGraphic" in2="effect1_backgroundBlur_1_191" result="shape"/>
</filter>
<filter id="filter10_b_1_191" x="441.319" y="54.6245" width="78.9047" height="127.002" filterUnits="userSpaceOnUse" color-interpolation-filters="sRGB">
<feFlood flood-opacity="0" result="BackgroundImageFix"/>
<feGaussianBlur in="BackgroundImageFix" stdDeviation="4"/>
<feComposite in2="SourceAlpha" operator="in" result="effect1_backgroundBlur_1_191"/>
<feBlend mode="normal" in="SourceGraphic" in2="effect1_backgroundBlur_1_191" result="shape"/>
</filter>
<filter id="filter11_b_1_191" x="376.937" y="83.1869" width="87.6783" height="44.7156" filterUnits="userSpaceOnUse" color-interpolation-filters="sRGB">
<feFlood flood-opacity="0" result="BackgroundImageFix"/>
<feGaussianBlur in="BackgroundImageFix" stdDeviation="4"/>
<feComposite in2="SourceAlpha" operator="in" result="effect1_backgroundBlur_1_191"/>
<feBlend mode="normal" in="SourceGraphic" in2="effect1_backgroundBlur_1_191" result="shape"/>
</filter>
<filter id="filter12_b_1_191" x="391.818" y="59.16" width="96.9282" height="73.3929" filterUnits="userSpaceOnUse" color-interpolation-filters="sRGB">
<feFlood flood-opacity="0" result="BackgroundImageFix"/>
<feGaussianBlur in="BackgroundImageFix" stdDeviation="4"/>
<feComposite in2="SourceAlpha" operator="in" result="effect1_backgroundBlur_1_191"/>
<feBlend mode="normal" in="SourceGraphic" in2="effect1_backgroundBlur_1_191" result="shape"/>
</filter>
<filter id="filter13_b_1_191" x="68.913" y="250.791" width="370.373" height="134.791" filterUnits="userSpaceOnUse" color-interpolation-filters="sRGB">
<feFlood flood-opacity="0" result="BackgroundImageFix"/>
<feGaussianBlur in="BackgroundImageFix" stdDeviation="4"/>
<feComposite in2="SourceAlpha" operator="in" result="effect1_backgroundBlur_1_191"/>
<feBlend mode="normal" in="SourceGraphic" in2="effect1_backgroundBlur_1_191" result="shape"/>
</filter>
<filter id="filter14_b_1_191" x="104.717" y="234.524" width="292.595" height="56.1013" filterUnits="userSpaceOnUse" color-interpolation-filters="sRGB">
<feFlood flood-opacity="0" result="BackgroundImageFix"/>
<feGaussianBlur in="BackgroundImageFix" stdDeviation="4"/>
<feComposite in2="SourceAlpha" operator="in" result="effect1_backgroundBlur_1_191"/>
<feBlend mode="normal" in="SourceGraphic" in2="effect1_backgroundBlur_1_191" result="shape"/>
</filter>
<filter id="filter15_b_1_191" x="116.65" y="173.637" width="275.071" height="103.121" filterUnits="userSpaceOnUse" color-interpolation-filters="sRGB">
<feFlood flood-opacity="0" result="BackgroundImageFix"/>
<feGaussianBlur in="BackgroundImageFix" stdDeviation="4"/>
<feComposite in2="SourceAlpha" operator="in" result="effect1_backgroundBlur_1_191"/>
<feBlend mode="normal" in="SourceGraphic" in2="effect1_backgroundBlur_1_191" result="shape"/>
</filter>
<filter id="filter16_b_1_191" x="137.433" y="158.861" width="230.138" height="56.1012" filterUnits="userSpaceOnUse" color-interpolation-filters="sRGB">
<feFlood flood-opacity="0" result="BackgroundImageFix"/>
<feGaussianBlur in="BackgroundImageFix" stdDeviation="4"/>
<feComposite in2="SourceAlpha" operator="in" result="effect1_backgroundBlur_1_191"/>
<feBlend mode="normal" in="SourceGraphic" in2="effect1_backgroundBlur_1_191" result="shape"/>
</filter>
<filter id="filter17_b_1_191" x="138.957" y="115.226" width="230.463" height="88.2957" filterUnits="userSpaceOnUse" color-interpolation-filters="sRGB">
<feFlood flood-opacity="0" result="BackgroundImageFix"/>
<feGaussianBlur in="BackgroundImageFix" stdDeviation="4"/>
<feComposite in2="SourceAlpha" operator="in" result="effect1_backgroundBlur_1_191"/>
<feBlend mode="normal" in="SourceGraphic" in2="effect1_backgroundBlur_1_191" result="shape"/>
</filter>
<filter id="filter18_b_1_191" x="182.045" y="115.226" width="146.862" height="42.2323" filterUnits="userSpaceOnUse" color-interpolation-filters="sRGB">
<feFlood flood-opacity="0" result="BackgroundImageFix"/>
<feGaussianBlur in="BackgroundImageFix" stdDeviation="4"/>
<feComposite in2="SourceAlpha" operator="in" result="effect1_backgroundBlur_1_191"/>
<feBlend mode="normal" in="SourceGraphic" in2="effect1_backgroundBlur_1_191" result="shape"/>
</filter>
<filter id="filter19_b_1_191" x="73.0201" y="346.409" width="356.079" height="38.4159" filterUnits="userSpaceOnUse" color-interpolation-filters="sRGB">
<feFlood flood-opacity="0" result="BackgroundImageFix"/>
<feGaussianBlur in="BackgroundImageFix" stdDeviation="4"/>
<feComposite in2="SourceAlpha" operator="in" result="effect1_backgroundBlur_1_191"/>
<feBlend mode="normal" in="SourceGraphic" in2="effect1_backgroundBlur_1_191" result="shape"/>
</filter>
<filter id="filter20_b_1_191" x="142.315" y="136.297" width="218.917" height="49.9819" filterUnits="userSpaceOnUse" color-interpolation-filters="sRGB">
<feFlood flood-opacity="0" result="BackgroundImageFix"/>
<feGaussianBlur in="BackgroundImageFix" stdDeviation="4"/>
<feComposite in2="SourceAlpha" operator="in" result="effect1_backgroundBlur_1_191"/>
<feBlend mode="normal" in="SourceGraphic" in2="effect1_backgroundBlur_1_191" result="shape"/>
</filter>
<filter id="filter21_b_1_191" x="119.541" y="206.1" width="270.299" height="57.5058" filterUnits="userSpaceOnUse" color-interpolation-filters="sRGB">
<feFlood flood-opacity="0" result="BackgroundImageFix"/>
<feGaussianBlur in="BackgroundImageFix" stdDeviation="4"/>
<feComposite in2="SourceAlpha" operator="in" result="effect1_backgroundBlur_1_191"/>
<feBlend mode="normal" in="SourceGraphic" in2="effect1_backgroundBlur_1_191" result="shape"/>
</filter>
<filter id="filter22_b_1_191" x="70.5285" y="293.571" width="363.149" height="52.4899" filterUnits="userSpaceOnUse" color-interpolation-filters="sRGB">
<feFlood flood-opacity="0" result="BackgroundImageFix"/>
<feGaussianBlur in="BackgroundImageFix" stdDeviation="4"/>
<feComposite in2="SourceAlpha" operator="in" result="effect1_backgroundBlur_1_191"/>
<feBlend mode="normal" in="SourceGraphic" in2="effect1_backgroundBlur_1_191" result="shape"/>
</filter>
<filter id="filter23_b_1_191" x="269.669" y="44.6924" width="41.3148" height="56.4781" filterUnits="userSpaceOnUse" color-interpolation-filters="sRGB">
<feFlood flood-opacity="0" result="BackgroundImageFix"/>
<feGaussianBlur in="BackgroundImageFix" stdDeviation="4"/>
<feComposite in2="SourceAlpha" operator="in" result="effect1_backgroundBlur_1_191"/>
<feBlend mode="normal" in="SourceGraphic" in2="effect1_backgroundBlur_1_191" result="shape"/>
</filter>
<filter id="filter24_b_1_191" x="284.169" y="82.8198" width="20.2898" height="54.475" filterUnits="userSpaceOnUse" color-interpolation-filters="sRGB">
<feFlood flood-opacity="0" result="BackgroundImageFix"/>
<feGaussianBlur in="BackgroundImageFix" stdDeviation="4"/>
<feComposite in2="SourceAlpha" operator="in" result="effect1_backgroundBlur_1_191"/>
<feBlend mode="normal" in="SourceGraphic" in2="effect1_backgroundBlur_1_191" result="shape"/>
</filter>
<filter id="filter25_b_1_191" x="285.251" y="73.9352" width="19.4493" height="25.9738" filterUnits="userSpaceOnUse" color-interpolation-filters="sRGB">
<feFlood flood-opacity="0" result="BackgroundImageFix"/>
<feGaussianBlur in="BackgroundImageFix" stdDeviation="4"/>
<feComposite in2="SourceAlpha" operator="in" result="effect1_backgroundBlur_1_191"/>
<feBlend mode="normal" in="SourceGraphic" in2="effect1_backgroundBlur_1_191" result="shape"/>
</filter>
<filter id="filter26_b_1_191" x="182.676" y="42.4225" width="41.3148" height="56.4781" filterUnits="userSpaceOnUse" color-interpolation-filters="sRGB">
<feFlood flood-opacity="0" result="BackgroundImageFix"/>
<feGaussianBlur in="BackgroundImageFix" stdDeviation="4"/>
<feComposite in2="SourceAlpha" operator="in" result="effect1_backgroundBlur_1_191"/>
<feBlend mode="normal" in="SourceGraphic" in2="effect1_backgroundBlur_1_191" result="shape"/>
</filter>
<filter id="filter27_b_1_191" x="197.175" y="80.5499" width="20.2898" height="54.475" filterUnits="userSpaceOnUse" color-interpolation-filters="sRGB">
<feFlood flood-opacity="0" result="BackgroundImageFix"/>
<feGaussianBlur in="BackgroundImageFix" stdDeviation="4"/>
<feComposite in2="SourceAlpha" operator="in" result="effect1_backgroundBlur_1_191"/>
<feBlend mode="normal" in="SourceGraphic" in2="effect1_backgroundBlur_1_191" result="shape"/>
</filter>
<filter id="filter28_b_1_191" x="198.257" y="71.6654" width="19.4494" height="25.9738" filterUnits="userSpaceOnUse" color-interpolation-filters="sRGB">
<feFlood flood-opacity="0" result="BackgroundImageFix"/>
<feGaussianBlur in="BackgroundImageFix" stdDeviation="4"/>
<feComposite in2="SourceAlpha" operator="in" result="effect1_backgroundBlur_1_191"/>
<feBlend mode="normal" in="SourceGraphic" in2="effect1_backgroundBlur_1_191" result="shape"/>
</filter>
<filter id="filter29_b_1_191" x="223.57" y="38.6394" width="41.3148" height="56.4781" filterUnits="userSpaceOnUse" color-interpolation-filters="sRGB">
<feFlood flood-opacity="0" result="BackgroundImageFix"/>
<feGaussianBlur in="BackgroundImageFix" stdDeviation="4"/>
<feComposite in2="SourceAlpha" operator="in" result="effect1_backgroundBlur_1_191"/>
<feBlend mode="normal" in="SourceGraphic" in2="effect1_backgroundBlur_1_191" result="shape"/>
</filter>
<filter id="filter30_b_1_191" x="238.07" y="76.7668" width="20.2898" height="54.475" filterUnits="userSpaceOnUse" color-interpolation-filters="sRGB">
<feFlood flood-opacity="0" result="BackgroundImageFix"/>
<feGaussianBlur in="BackgroundImageFix" stdDeviation="4"/>
<feComposite in2="SourceAlpha" operator="in" result="effect1_backgroundBlur_1_191"/>
<feBlend mode="normal" in="SourceGraphic" in2="effect1_backgroundBlur_1_191" result="shape"/>
</filter>
<filter id="filter31_b_1_191" x="239.151" y="67.8822" width="19.4493" height="25.9738" filterUnits="userSpaceOnUse" color-interpolation-filters="sRGB">
<feFlood flood-opacity="0" result="BackgroundImageFix"/>
<feGaussianBlur in="BackgroundImageFix" stdDeviation="4"/>
<feComposite in2="SourceAlpha" operator="in" result="effect1_backgroundBlur_1_191"/>
<feBlend mode="normal" in="SourceGraphic" in2="effect1_backgroundBlur_1_191" result="shape"/>
</filter>
<filter id="filter32_b_1_191" x="253.292" y="208.779" width="36.3434" height="33.8541" filterUnits="userSpaceOnUse" color-interpolation-filters="sRGB">
<feFlood flood-opacity="0" result="BackgroundImageFix"/>
<feGaussianBlur in="BackgroundImageFix" stdDeviation="4"/>
<feComposite in2="SourceAlpha" operator="in" result="effect1_backgroundBlur_1_191"/>
<feBlend mode="normal" in="SourceGraphic" in2="effect1_backgroundBlur_1_191" result="shape"/>
</filter>
<filter id="filter33_b_1_191" x="152.171" y="298.061" width="36.3434" height="33.854" filterUnits="userSpaceOnUse" color-interpolation-filters="sRGB">
<feFlood flood-opacity="0" result="BackgroundImageFix"/>
<feGaussianBlur in="BackgroundImageFix" stdDeviation="4"/>
<feComposite in2="SourceAlpha" operator="in" result="effect1_backgroundBlur_1_191"/>
<feBlend mode="normal" in="SourceGraphic" in2="effect1_backgroundBlur_1_191" result="shape"/>
</filter>
<filter id="filter34_b_1_191" x="170.016" y="164.895" width="36.3435" height="33.854" filterUnits="userSpaceOnUse" color-interpolation-filters="sRGB">
<feFlood flood-opacity="0" result="BackgroundImageFix"/>
<feGaussianBlur in="BackgroundImageFix" stdDeviation="4"/>
<feComposite in2="SourceAlpha" operator="in" result="effect1_backgroundBlur_1_191"/>
<feBlend mode="normal" in="SourceGraphic" in2="effect1_backgroundBlur_1_191" result="shape"/>
</filter>
<filter id="filter35_b_1_191" x="331.991" y="42.6782" width="95.9487" height="118.383" filterUnits="userSpaceOnUse" color-interpolation-filters="sRGB">
<feFlood flood-opacity="0" result="BackgroundImageFix"/>
<feGaussianBlur in="BackgroundImageFix" stdDeviation="4"/>
<feComposite in2="SourceAlpha" operator="in" result="effect1_backgroundBlur_1_191"/>
<feBlend mode="normal" in="SourceGraphic" in2="effect1_backgroundBlur_1_191" result="shape"/>
</filter>
<filter id="filter36_b_1_191" x="307.767" y="-8" width="71.0848" height="70.1305" filterUnits="userSpaceOnUse" color-interpolation-filters="sRGB">
<feFlood flood-opacity="0" result="BackgroundImageFix"/>
<feGaussianBlur in="BackgroundImageFix" stdDeviation="4"/>
<feComposite in2="SourceAlpha" operator="in" result="effect1_backgroundBlur_1_191"/>
<feBlend mode="normal" in="SourceGraphic" in2="effect1_backgroundBlur_1_191" result="shape"/>
</filter>
<filter id="filter37_b_1_191" x="308.248" y="9.44919" width="58.8871" height="52.6813" filterUnits="userSpaceOnUse" color-interpolation-filters="sRGB">
<feFlood flood-opacity="0" result="BackgroundImageFix"/>
<feGaussianBlur in="BackgroundImageFix" stdDeviation="4"/>
<feComposite in2="SourceAlpha" operator="in" result="effect1_backgroundBlur_1_191"/>
<feBlend mode="normal" in="SourceGraphic" in2="effect1_backgroundBlur_1_191" result="shape"/>
</filter>
<filter id="filter38_b_1_191" x="480.005" y="120.107" width="51.8537" height="44.7017" filterUnits="userSpaceOnUse" color-interpolation-filters="sRGB">
<feFlood flood-opacity="0" result="BackgroundImageFix"/>
<feGaussianBlur in="BackgroundImageFix" stdDeviation="4"/>
<feComposite in2="SourceAlpha" operator="in" result="effect1_backgroundBlur_1_191"/>
<feBlend mode="normal" in="SourceGraphic" in2="effect1_backgroundBlur_1_191" result="shape"/>
</filter>
<filter id="filter39_b_1_191" x="483.161" y="60.4521" width="71.9425" height="94.1212" filterUnits="userSpaceOnUse" color-interpolation-filters="sRGB">
<feFlood flood-opacity="0" result="BackgroundImageFix"/>
<feGaussianBlur in="BackgroundImageFix" stdDeviation="4"/>
<feComposite in2="SourceAlpha" operator="in" result="effect1_backgroundBlur_1_191"/>
<feBlend mode="normal" in="SourceGraphic" in2="effect1_backgroundBlur_1_191" result="shape"/>
</filter>
<filter id="filter40_b_1_191" x="-7.99997" y="368.965" width="631" height="18.0353" filterUnits="userSpaceOnUse" color-interpolation-filters="sRGB">
<feFlood flood-opacity="0" result="BackgroundImageFix"/>
<feGaussianBlur in="BackgroundImageFix" stdDeviation="4"/>
<feComposite in2="SourceAlpha" operator="in" result="effect1_backgroundBlur_1_191"/>
<feBlend mode="normal" in="SourceGraphic" in2="effect1_backgroundBlur_1_191" result="shape"/>
</filter>
<filter id="filter41_b_1_191" x="490.242" y="3.08099" width="31.8893" height="35.832" filterUnits="userSpaceOnUse" color-interpolation-filters="sRGB">
<feFlood flood-opacity="0" result="BackgroundImageFix"/>
<feGaussianBlur in="BackgroundImageFix" stdDeviation="4"/>
<feComposite in2="SourceAlpha" operator="in" result="effect1_backgroundBlur_1_191"/>
<feBlend mode="normal" in="SourceGraphic" in2="effect1_backgroundBlur_1_191" result="shape"/>
</filter>
<clipPath id="clip0_1_191">
<rect width="615" height="379" fill="white"/>
</clipPath>
</defs>
</svg>
