<svg width="24" height="25" viewBox="0 0 24 25" fill="none" xmlns="http://www.w3.org/2000/svg">
<path fill-rule="evenodd" clip-rule="evenodd" d="M12 24.1083C18.6274 24.1083 24 18.7357 24 12.1083C24 5.48086 18.6274 0.108276 12 0.108276C5.37258 0.108276 0 5.48086 0 12.1083C0 18.7357 5.37258 24.1083 12 24.1083Z" fill="black" fill-opacity="0.26"/>
<path d="M15.4412 16.1083H9.85138V15.329L12.8045 12.0477C13.242 11.5516 13.5428 11.1493 13.7069 10.8407C13.8748 10.5282 13.9588 10.2059 13.9588 9.8739C13.9588 9.42859 13.824 9.06335 13.5545 8.7782C13.285 8.49304 12.9256 8.35046 12.4764 8.35046C11.9373 8.35046 11.5174 8.50476 11.2166 8.81335C10.9197 9.11804 10.7713 9.54382 10.7713 10.0907H9.68732C9.68732 9.30554 9.93927 8.67078 10.4432 8.1864C10.951 7.70203 11.6287 7.45984 12.4764 7.45984C13.2694 7.45984 13.8963 7.66882 14.3572 8.08679C14.8182 8.50085 15.0486 9.05359 15.0486 9.745C15.0486 10.5848 14.5135 11.5848 13.4432 12.745L11.158 15.2235H15.4412V16.1083Z" fill="white"/>
</svg>
