<svg width="24" height="25" viewBox="0 0 24 25" fill="none" xmlns="http://www.w3.org/2000/svg">
<path fill-rule="evenodd" clip-rule="evenodd" d="M12 24.1083C18.6274 24.1083 24 18.7357 24 12.1083C24 5.48086 18.6274 0.108276 12 0.108276C5.37258 0.108276 0 5.48086 0 12.1083C0 18.7357 5.37258 24.1083 12 24.1083Z" fill="black" fill-opacity="0.26"/>
<path d="M11.4276 11.3153H12.242C12.7537 11.3075 13.1561 11.1727 13.449 10.911C13.742 10.6493 13.8885 10.2958 13.8885 9.85046C13.8885 8.85046 13.3904 8.35046 12.3944 8.35046C11.9256 8.35046 11.5506 8.48523 11.2694 8.75476C10.992 9.02039 10.8533 9.3739 10.8533 9.81531H9.76935C9.76935 9.13953 10.0154 8.57898 10.5076 8.13367C11.0037 7.68445 11.6326 7.45984 12.3944 7.45984C13.199 7.45984 13.8299 7.67273 14.2869 8.09851C14.744 8.52429 14.9725 9.11609 14.9725 9.8739C14.9725 10.245 14.8514 10.6044 14.6092 10.952C14.3709 11.2997 14.0447 11.5594 13.6307 11.7313C14.0994 11.8798 14.4608 12.1259 14.7147 12.4696C14.9725 12.8134 15.1014 13.2333 15.1014 13.7294C15.1014 14.495 14.8514 15.1024 14.3514 15.5516C13.8514 16.0009 13.201 16.2255 12.4002 16.2255C11.5994 16.2255 10.9471 16.0087 10.4432 15.5751C9.94318 15.1415 9.69318 14.5692 9.69318 13.8583H10.783C10.783 14.3075 10.9295 14.6669 11.2225 14.9364C11.5154 15.2059 11.908 15.3407 12.4002 15.3407C12.9236 15.3407 13.324 15.204 13.6014 14.9305C13.8787 14.6571 14.0174 14.2645 14.0174 13.7528C14.0174 13.2567 13.8651 12.8759 13.5604 12.6102C13.2557 12.3446 12.8162 12.2079 12.242 12.2001H11.4276V11.3153Z" fill="white"/>
</svg>
